<?xml version="1.0" standalone="no"?><svg xmlns="http://www.w3.org/2000/svg" viewBox="0 0 1440 320"><path fill="#121212" fill-opacity="1" d="M0,32L20,58.7C40,85,80,139,120,176C160,213,200,235,240,224C280,213,320,171,360,165.3C400,160,440,192,480,213.3C520,235,560,245,600,234.7C640,224,680,192,720,181.3C760,171,800,181,840,202.7C880,224,920,256,960,245.3C1000,235,1040,181,1080,138.7C1120,96,1160,64,1200,42.7C1240,21,1280,11,1320,32C1360,53,1400,107,1420,133.3L1440,160L1440,0L1420,0C1400,0,1360,0,1320,0C1280,0,1240,0,1200,0C1160,0,1120,0,1080,0C1040,0,1000,0,960,0C920,0,880,0,840,0C800,0,760,0,720,0C680,0,640,0,600,0C560,0,520,0,480,0C440,0,400,0,360,0C320,0,280,0,240,0C200,0,160,0,120,0C80,0,40,0,20,0L0,0Z"></path></svg>