<svg width="21" height="21" viewBox="0 0 21 21" fill="none" xmlns="http://www.w3.org/2000/svg">
<path d="M10.6722 2.28467C6.0722 2.28467 2.33887 6.018 2.33887 10.618C2.33887 15.218 6.0722 18.9513 10.6722 18.9513C15.2722 18.9513 19.0055 15.218 19.0055 10.618C19.0055 6.018 15.2722 2.28467 10.6722 2.28467ZM14.5389 7.95133C14.4139 9.268 13.8722 12.468 13.5972 13.943C13.4805 14.568 13.2472 14.7763 13.0305 14.8013C12.5472 14.843 12.1805 14.4847 11.7139 14.1763C10.9805 13.693 10.5639 13.393 9.85553 12.9263C9.03053 12.3847 9.56387 12.0847 10.0389 11.6013C10.1639 11.4763 12.2972 9.53467 12.3389 9.35967C12.3447 9.33316 12.3439 9.30564 12.3366 9.2795C12.3294 9.25336 12.3158 9.22939 12.2972 9.20967C12.2472 9.168 12.1805 9.18467 12.1222 9.193C12.0472 9.20967 10.8805 9.98467 8.60553 11.518C8.2722 11.743 7.9722 11.8597 7.70553 11.8513C7.40553 11.843 6.83887 11.6847 6.41387 11.543C5.88887 11.3763 5.48053 11.2847 5.51387 10.993C5.53053 10.843 5.73887 10.693 6.13053 10.5347C8.56387 9.47633 10.1805 8.77633 10.9889 8.443C13.3055 7.47634 13.7805 7.30967 14.0972 7.30967C14.1639 7.30967 14.3222 7.32633 14.4222 7.40967C14.5055 7.47633 14.5305 7.568 14.5389 7.63467C14.5305 7.68467 14.5472 7.83467 14.5389 7.95133Z" fill="white"/>
</svg>
