<svg width="21" height="21" viewBox="0 0 21 21" fill="none" xmlns="http://www.w3.org/2000/svg">
<path d="M7.1722 2.28467H14.1722C16.8389 2.28467 19.0055 4.45133 19.0055 7.118V14.118C19.0055 15.3999 18.4963 16.6293 17.5899 17.5357C16.6835 18.4421 15.4541 18.9513 14.1722 18.9513H7.1722C4.50553 18.9513 2.33887 16.7847 2.33887 14.118V7.118C2.33887 5.83612 2.84809 4.60674 3.75452 3.70032C4.66094 2.79389 5.89032 2.28467 7.1722 2.28467ZM7.00553 3.95133C6.20988 3.95133 5.44682 4.26741 4.88421 4.83001C4.3216 5.39262 4.00553 6.15568 4.00553 6.95133V14.2847C4.00553 15.943 5.3472 17.2847 7.00553 17.2847H14.3389C15.1345 17.2847 15.8976 16.9686 16.4602 16.406C17.0228 15.8434 17.3389 15.0803 17.3389 14.2847V6.95133C17.3389 5.293 15.9972 3.95133 14.3389 3.95133H7.00553ZM15.0472 5.20133C15.3235 5.20133 15.5884 5.31108 15.7838 5.50643C15.9791 5.70178 16.0889 5.96673 16.0889 6.243C16.0889 6.51927 15.9791 6.78422 15.7838 6.97957C15.5884 7.17492 15.3235 7.28467 15.0472 7.28467C14.7709 7.28467 14.506 7.17492 14.3106 6.97957C14.1153 6.78422 14.0055 6.51927 14.0055 6.243C14.0055 5.96673 14.1153 5.70178 14.3106 5.50643C14.506 5.31108 14.7709 5.20133 15.0472 5.20133ZM10.6722 6.45133C11.7773 6.45133 12.8371 6.89032 13.6185 7.67172C14.3999 8.45312 14.8389 9.51293 14.8389 10.618C14.8389 11.7231 14.3999 12.7829 13.6185 13.5643C12.8371 14.3457 11.7773 14.7847 10.6722 14.7847C9.56713 14.7847 8.50732 14.3457 7.72592 13.5643C6.94452 12.7829 6.50553 11.7231 6.50553 10.618C6.50553 9.51293 6.94452 8.45312 7.72592 7.67172C8.50732 6.89032 9.56713 6.45133 10.6722 6.45133ZM10.6722 8.118C10.0092 8.118 9.37327 8.38139 8.90443 8.85023C8.43559 9.31907 8.1722 9.95496 8.1722 10.618C8.1722 11.281 8.43559 11.9169 8.90443 12.3858C9.37327 12.8546 10.0092 13.118 10.6722 13.118C11.3352 13.118 11.9711 12.8546 12.44 12.3858C12.9088 11.9169 13.1722 11.281 13.1722 10.618C13.1722 9.95496 12.9088 9.31907 12.44 8.85023C11.9711 8.38139 11.3352 8.118 10.6722 8.118Z" fill="white"/>
</svg>
