<svg width="21" height="21" viewBox="0 0 21 21" fill="none" xmlns="http://www.w3.org/2000/svg">
<path d="M6.45589 4.78469C6.45567 5.22672 6.27986 5.65055 5.96715 5.96295C5.65443 6.27536 5.23042 6.45074 4.78839 6.45052C4.34636 6.4503 3.92253 6.27449 3.61012 5.96178C3.29772 5.64906 3.12234 5.22505 3.12256 4.78302C3.12278 4.34099 3.29859 3.91716 3.6113 3.60475C3.92402 3.29235 4.34803 3.11697 4.79006 3.11719C5.23209 3.11741 5.65592 3.29322 5.96833 3.60593C6.28073 3.91865 6.45611 4.34266 6.45589 4.78469ZM6.50589 7.68469H3.17256V18.118H6.50589V7.68469ZM11.7726 7.68469H8.45589V18.118H11.7392V12.643C11.7392 9.59302 15.7142 9.30969 15.7142 12.643V18.118H19.0059V11.5097C19.0059 6.36802 13.1226 6.55969 11.7392 9.08469L11.7726 7.68469Z" fill="white"/>
</svg>
