<svg width="16" height="16" viewBox="0 0 16 16" fill="none" xmlns="http://www.w3.org/2000/svg">
<path d="M8.00066 1.3335C11.6827 1.3335 14.6673 4.31816 14.6673 8.00016C14.6673 11.6822 11.6827 14.6668 8.00066 14.6668C6.8225 14.6689 5.66505 14.3571 4.64733 13.7635L1.33666 14.6668L2.23799 11.3548C1.64397 10.3368 1.33193 9.17884 1.33399 8.00016C1.33399 4.31816 4.31866 1.3335 8.00066 1.3335ZM5.72866 4.86683L5.59533 4.87216C5.50912 4.8781 5.42489 4.90074 5.34733 4.93883C5.27504 4.97984 5.20904 5.03103 5.15133 5.09083C5.07133 5.16616 5.02599 5.2315 4.97733 5.29483C4.73074 5.61543 4.59798 6.00904 4.59999 6.4135C4.60133 6.74016 4.68666 7.05816 4.81999 7.3555C5.09266 7.95683 5.54133 8.5935 6.13333 9.1835C6.27599 9.3255 6.416 9.46816 6.56666 9.60083C7.30228 10.2484 8.17885 10.7155 9.12666 10.9648L9.50533 11.0228C9.62866 11.0295 9.752 11.0202 9.876 11.0142C10.0701 11.0039 10.2597 10.9514 10.4313 10.8602C10.5186 10.8151 10.6038 10.7661 10.6867 10.7135C10.6867 10.7135 10.7149 10.6944 10.77 10.6535C10.86 10.5868 10.9153 10.5395 10.99 10.4615C11.046 10.4037 11.0927 10.3366 11.13 10.2602C11.182 10.1515 11.234 9.94416 11.2553 9.7715C11.2713 9.6395 11.2667 9.5675 11.2647 9.52283C11.262 9.4515 11.2027 9.3775 11.138 9.34616L10.75 9.17216C10.75 9.17216 10.17 8.9195 9.81533 8.75816C9.7782 8.742 9.73844 8.73274 9.698 8.73083C9.65238 8.72606 9.60627 8.73115 9.56279 8.74576C9.51931 8.76036 9.47948 8.78415 9.446 8.8155C9.44266 8.81416 9.39799 8.85216 8.91599 9.43616C8.88833 9.47334 8.85022 9.50143 8.80653 9.51687C8.76284 9.5323 8.71554 9.53438 8.67066 9.52283C8.62721 9.51125 8.58466 9.49654 8.54333 9.47883C8.46066 9.44416 8.43199 9.43083 8.37533 9.40683C7.99258 9.2401 7.63829 9.01448 7.32533 8.73816C7.24133 8.66483 7.16333 8.58483 7.08333 8.5075C6.82107 8.2563 6.5925 7.97215 6.40333 7.66216L6.36399 7.59883C6.33617 7.55603 6.31335 7.51017 6.29599 7.46216C6.27066 7.36416 6.33666 7.2855 6.33666 7.2855C6.33666 7.2855 6.49866 7.10816 6.57399 7.01216C6.64733 6.91883 6.70933 6.82816 6.74933 6.7635C6.82799 6.63683 6.85266 6.50683 6.81133 6.40616C6.62466 5.95016 6.43177 5.49661 6.23266 5.0455C6.19333 4.95616 6.07666 4.89216 5.97066 4.8795C5.93466 4.87505 5.89866 4.8715 5.86266 4.86883C5.77315 4.8637 5.68339 4.86459 5.59399 4.8715L5.72866 4.86683Z" fill="white"/>
</svg>
