<svg width="16" height="16" viewBox="0 0 16 16" fill="none" xmlns="http://www.w3.org/2000/svg">
<path d="M14.6665 7.95929C14.6728 6.88632 14.5813 5.815 14.3932 4.75863C14.31 4.47982 14.1553 4.22764 13.9444 4.02717C13.7336 3.8267 13.4739 3.68493 13.1912 3.61596C11.4633 3.41357 9.72416 3.32227 7.98454 3.34263C6.24521 3.32263 4.50654 3.41596 2.77921 3.62263C2.49879 3.6999 2.24324 3.84865 2.03757 4.05432C1.8319 4.26 1.68315 4.51555 1.60588 4.79596C1.41788 5.85211 1.32683 6.92323 1.33388 7.99596C1.32721 9.06929 1.41854 10.14 1.60654 11.196C1.68517 11.4795 1.83575 11.7378 2.04367 11.946C2.25159 12.1542 2.50979 12.305 2.79321 12.384C4.52121 12.586 6.25988 12.6773 7.99988 12.6566C9.73445 12.6801 11.4687 12.5888 13.1912 12.3833C13.4713 12.306 13.7266 12.1574 13.9322 11.952C14.1377 11.7466 14.2865 11.4914 14.3639 11.2113C14.5685 10.1393 14.6705 9.04996 14.6665 7.95929ZM9.72587 8.34729L7.05588 9.86129C7.0021 9.89081 6.94157 9.90581 6.88024 9.90483C6.81891 9.90386 6.75889 9.88693 6.70609 9.85572C6.65328 9.8245 6.60951 9.78008 6.57908 9.72682C6.54865 9.67356 6.53261 9.6133 6.53254 9.55196V6.41063C6.53176 6.34908 6.54738 6.28842 6.5778 6.23491C6.60822 6.18139 6.65234 6.13694 6.70562 6.10612C6.75891 6.07531 6.81944 6.05923 6.881 6.05956C6.94255 6.05988 7.00291 6.07659 7.05588 6.10796L9.81388 7.69329C9.86704 7.72466 9.91086 7.76965 9.94082 7.82361C9.97078 7.87758 9.98578 7.93856 9.98429 8.00027C9.98279 8.06197 9.96485 8.12216 9.93231 8.17461C9.89978 8.22706 9.85383 8.26988 9.79921 8.29863L9.72587 8.34729Z" fill="white"/>
</svg>
